<svg xmlns="http://www.w3.org/2000/svg" width="40" height="40" viewBox="0 0 40 40">
    <path fill="#E6C2A1" fill-rule="evenodd" d="M21.616 23.976c-1.242 0-2.36-.497-2.733-1.243 0 0-.621 2.236-.746 2.733-.497 1.366-1.863 3.479-1.987 3.603-.124.124-.25.124-.25 0-.123-.124-.495-2.609-.123-4.1.249-.869 1.367-5.59 1.367-5.59s-.373-.745-.373-1.739c0-1.615.869-2.733 2.112-2.733.994 0 1.49.746 1.49 1.615 0 .87-.62 2.36-.993 3.726-.248 1.243.62 2.113 1.739 2.113 2.112 0 3.726-2.113 3.726-5.218 0-2.732-1.987-4.596-4.968-4.596-3.354 0-5.342 2.485-5.342 4.969 0 .994.373 1.987.87 2.608.124.124.124.249.124.373-.124.373-.373 1.119-.373 1.243 0 .124-.124.248-.372.124-1.491-.621-2.36-2.733-2.36-4.348 0-3.603 2.732-6.832 7.826-6.832 4.098 0 7.329 2.732 7.577 6.211 0 3.975-2.608 7.081-6.211 7.081M20 0C8.945 0 0 8.945 0 20c0 11.056 8.944 20 20 20 11.055 0 20-8.944 20-20C40 8.945 31.056 0 20 0"/>
</svg>
